<?xml version="1.0" encoding="UTF-8" standalone="no"?>
<svg
   role="img"
   viewBox="0 0 24 24"
   version="1.1"
   id="svg1"
   sodipodi:docname="bluesky.svg"
   inkscape:version="1.4 (86a8ad7, 2024-10-11)"
   xmlns:inkscape="http://www.inkscape.org/namespaces/inkscape"
   xmlns:sodipodi="http://sodipodi.sourceforge.net/DTD/sodipodi-0.dtd"
   xmlns="http://www.w3.org/2000/svg"
   xmlns:svg="http://www.w3.org/2000/svg"
   xmlns:rdf="http://www.w3.org/1999/02/22-rdf-syntax-ns#"
   xmlns:cc="http://creativecommons.org/ns#"
   xmlns:dc="http://purl.org/dc/elements/1.1/">
  <defs
     id="defs1" />
  <sodipodi:namedview
     id="namedview1"
     pagecolor="#ffffff"
     bordercolor="#111111"
     borderopacity="1"
     inkscape:showpageshadow="0"
     inkscape:pageopacity="0"
     inkscape:pagecheckerboard="1"
     inkscape:deskcolor="#d1d1d1"
     inkscape:zoom="33.625"
     inkscape:cx="12"
     inkscape:cy="12"
     inkscape:window-width="1920"
     inkscape:window-height="1009"
     inkscape:window-x="1912"
     inkscape:window-y="-8"
     inkscape:window-maximized="1"
     inkscape:current-layer="svg1" />
  <title
     id="title1">Bluesky</title>
  <path
     d="M12 10.8c-1.087-2.114-4.046-6.053-6.798-7.995C2.566.944 1.561 1.266.902 1.565.139 1.908 0 3.08 0 3.768c0 .69.378 5.65.624 6.479.815 2.736 3.713 3.66 6.383 3.364.136-.02.275-.039.415-.056-.138.022-.276.04-.415.056-3.912.58-7.387 2.005-2.83 7.078 5.013 5.19 6.87-1.113 7.823-4.308.953 3.195 2.05 9.271 7.733 4.308 4.267-4.308 1.172-6.498-2.74-7.078a8.741 8.741 0 0 1-.415-.056c.14.017.279.036.415.056 2.67.297 5.568-.628 6.383-3.364.246-.828.624-5.79.624-6.478 0-.69-.139-1.861-.902-2.206-.659-.298-1.664-.62-4.3 1.24C16.046 4.748 13.087 8.687 12 10.8Z"
     id="path1" />
  <path
     style="fill:#0000ff;stroke-width:0.0297398"
     d="M 7.0929368,22.590321 C 5.8456717,22.315012 4.3695866,21.109982 3.1185133,19.345725 2.2887523,18.175601 1.9245839,17.131928 2.0649007,16.32617 c 0.2253384,-1.29399 1.6724287,-2.145475 4.4481105,-2.617323 0.2453531,-0.04171 0.4561457,-0.07858 0.4684282,-0.08193 0.012282,-0.0034 -0.3892048,-0.0067 -0.8921933,-0.0075 -0.8568339,-0.0014 -0.9417282,-0.0064 -1.3457517,-0.0801 C 2.9195883,13.206591 1.5868871,12.309055 0.93442448,10.973978 0.58596271,10.260951 0.48521344,9.7068211 0.26934593,7.3159851 0.06055317,5.0035057 -0.00942127,3.7957965 0.03794073,3.3220954 0.12092735,2.4920871 0.37786022,1.9135615 0.77709942,1.657761 1.0205801,1.501758 1.4413269,1.3779998 1.7843866,1.3614781 c 0.8350417,-0.040215 1.9833095,0.4507826 3.3930766,1.450876 1.5936271,1.1305242 3.4177713,3.0309455 5.0700858,5.2820923 0.624136,0.8503361 1.343314,1.9612736 1.651629,2.5513256 0.04727,0.09047 0.09264,0.164496 0.100822,0.164496 0.0082,0 0.05355,-0.07402 0.100822,-0.164496 0.308315,-0.590052 1.027493,-1.7009895 1.651629,-2.5513256 1.691714,-2.3048262 3.526834,-4.2040002 5.175621,-5.3562736 0.685149,-0.4788242 1.437564,-0.9038686 1.97836,-1.1175894 0.797161,-0.3150357 1.412062,-0.3450785 2.041647,-0.099751 0.504631,0.1966374 0.789474,0.6004544 0.95211,1.3497909 0.121269,0.5587377 0.08989,1.4841235 -0.139142,4.1033541 -0.180113,2.0597856 -0.30855,2.9996416 -0.475194,3.4772886 -0.476061,1.364517 -1.509184,2.327087 -3.047935,2.83979 -0.805547,0.268404 -1.489011,0.359194 -2.5551,0.339415 l -0.701405,-0.01301 0.297397,0.054 c 1.556799,0.282691 2.803217,0.785215 3.563523,1.436719 0.413512,0.354338 0.72987,0.840088 0.858278,1.317841 0.09101,0.338624 0.08512,0.847167 -0.01421,1.227066 -0.142141,0.543606 -0.392761,1.064046 -0.779294,1.618287 -0.415361,0.595579 -0.9984,1.250818 -1.440769,1.619189 -1.050239,0.874557 -1.981826,1.397668 -2.841801,1.595747 -0.316295,0.07285 -0.87617,0.07398 -1.144981,0.0023 -0.937951,-0.250096 -1.710349,-1.092891 -2.319205,-2.530581 -0.285896,-0.675085 -0.580171,-1.581168 -0.99813,-3.073274 -0.07904,-0.282156 -0.151444,-0.513011 -0.160906,-0.513011 -0.0095,0 -0.07618,0.197398 -0.148263,0.438662 -0.738599,2.472151 -1.44667,3.979086 -2.305574,4.906782 -0.3730251,0.402901 -0.8934246,0.736216 -1.3392976,0.857816 -0.2762313,0.07533 -0.8101094,0.08267 -1.1152416,0.01531 z m 0.3122677,-9.030074 c 0.016357,-0.0079 -0.023792,-0.0077 -0.089219,4.94e-4 -0.065428,0.0081 -0.1557621,0.01496 -0.2007435,0.01514 -0.044981,1.8e-4 -0.081784,0.01168 -0.081784,0.02556 0,0.02378 0.3075962,-0.01031 0.3717473,-0.0412 z m 9.5588605,0.03477 c -0.0068,-0.006 -0.09938,-0.01888 -0.205701,-0.02859 -0.223937,-0.02046 -0.207816,-0.0022 0.02974,0.0336 0.152249,0.02297 0.205956,0.02144 0.175961,-0.005 z"
     id="path2" />
  <metadata
     id="metadata2">
    <rdf:RDF>
      <cc:Work
         rdf:about="">
        <dc:title>Bluesky</dc:title>
      </cc:Work>
    </rdf:RDF>
  </metadata>
  <path
     style="fill:#4392f7;stroke-width:0.0297398;fill-opacity:1"
     d="M 7.0929368,22.572715 C 5.818803,22.287664 4.2523459,20.977589 3.021065,19.167286 2.0196606,17.694961 1.7962,16.485147 2.3650453,15.6156 2.94374,14.730998 4.2222879,14.137582 6.3791822,13.752507 c 0.3026022,-0.05402 0.5628996,-0.109101 0.5784386,-0.122393 0.015539,-0.01329 -0.3461505,-0.02417 -0.803754,-0.02417 -0.8967676,0 -1.1489948,-0.02073 -1.6780304,-0.137919 C 2.8563294,13.109289 1.6135774,12.247246 1.003396,11.059349 0.58673514,10.248195 0.49697234,9.7456687 0.23912594,6.7806691 -0.00523588,3.9707298 -0.01254139,3.2614186 0.19591956,2.5856481 0.39493814,1.9404871 0.66961963,1.6528844 1.2639405,1.4673867 c 0.3219986,-0.1005013 0.9108798,-0.1000201 1.2936803,0.00106 0.987664,0.2607891 2.3056961,1.0430593 3.6133829,2.1445926 0.497357,0.4189499 1.7930052,1.7111532 2.2995685,2.2934545 1.3064491,1.5017802 2.5400518,3.1992229 3.2942528,4.5329042 0.115394,0.204058 0.221454,0.371014 0.235687,0.371014 0.01423,0 0.102578,-0.137175 0.196321,-0.304833 0.343646,-0.6146067 0.851418,-1.3968833 1.433317,-2.2081781 1.625421,-2.2661904 3.568853,-4.3066779 5.218297,-5.4788968 0.919151,-0.6532185 1.805236,-1.1246714 2.504952,-1.3327929 0.387797,-0.1153452 0.914874,-0.1349317 1.264802,-0.047001 0.74332,0.1867837 1.097749,0.6008131 1.284211,1.5001629 0.05425,0.2616585 0.04474,1.5179088 -0.01772,2.3399403 -0.207761,2.7345026 -0.400267,4.4247007 -0.571863,5.0209326 -0.08961,0.311369 -0.344054,0.851747 -0.535199,1.136643 -0.719125,1.071838 -1.962385,1.807042 -3.530179,2.087578 -0.321825,0.05759 -0.469929,0.06502 -1.314366,0.06601 -0.523421,6.09e-4 -1.045354,-0.0098 -1.159852,-0.02311 -0.132274,-0.01539 -0.191913,-0.014 -0.163569,0.0038 0.02454,0.01542 0.124907,0.03711 0.223049,0.04821 0.31514,0.03564 0.820068,0.136031 1.30855,0.260164 1.876362,0.47682 3.059858,1.269165 3.465035,2.319825 0.419374,1.087472 -0.0841,2.457988 -1.47247,4.008224 -0.827824,0.924339 -2.136791,1.822971 -3.137546,2.153987 -1.710113,0.565648 -2.977623,-0.297878 -3.92402,-2.673345 -0.201223,-0.505071 -0.462987,-1.310739 -0.771329,-2.374034 -0.146221,-0.504232 -0.273749,-0.924679 -0.283395,-0.934325 -0.0096,-0.0096 -0.02493,-0.01015 -0.03395,-0.0011 -0.009,0.009 -0.122615,0.356647 -0.252415,0.772486 -0.401099,1.285004 -0.746956,2.181575 -1.145009,2.968224 -0.6848777,1.353487 -1.3820197,2.084819 -2.3036331,2.416609 -0.219526,0.07903 -0.9064863,0.100483 -1.1895911,0.03715 z m 0.2973978,-8.999606 c 0.029196,-0.01625 -0.00163,-0.025 -0.089219,-0.02533 -0.1553388,-5.78e-4 -0.267658,0.0247 -0.267658,0.06024 0,0.0295 0.2925877,8.81e-4 0.356877,-0.03491 z"
     id="path3" />
</svg>
