<?xml version="1.0" encoding="UTF-8" standalone="no"?>
<svg
   role="img"
   viewBox="0 0 24 24"
   version="1.1"
   id="svg1"
   sodipodi:docname="instagram_blue.svg"
   inkscape:version="1.4 (86a8ad7, 2024-10-11)"
   xmlns:inkscape="http://www.inkscape.org/namespaces/inkscape"
   xmlns:sodipodi="http://sodipodi.sourceforge.net/DTD/sodipodi-0.dtd"
   xmlns="http://www.w3.org/2000/svg"
   xmlns:svg="http://www.w3.org/2000/svg"
   xmlns:rdf="http://www.w3.org/1999/02/22-rdf-syntax-ns#"
   xmlns:cc="http://creativecommons.org/ns#"
   xmlns:dc="http://purl.org/dc/elements/1.1/">
  <defs
     id="defs1" />
  <sodipodi:namedview
     id="namedview1"
     pagecolor="#ffffff"
     bordercolor="#111111"
     borderopacity="1"
     inkscape:showpageshadow="0"
     inkscape:pageopacity="0"
     inkscape:pagecheckerboard="1"
     inkscape:deskcolor="#d1d1d1"
     inkscape:zoom="33.625"
     inkscape:cx="12"
     inkscape:cy="12"
     inkscape:window-width="1920"
     inkscape:window-height="1009"
     inkscape:window-x="1912"
     inkscape:window-y="-8"
     inkscape:window-maximized="1"
     inkscape:current-layer="svg1" />
  <title
     id="title1">Instagram</title>
  <path
     d="M7.0301.084c-1.2768.0602-2.1487.264-2.911.5634-.7888.3075-1.4575.72-2.1228 1.3877-.6652.6677-1.075 1.3368-1.3802 2.127-.2954.7638-.4956 1.6365-.552 2.914-.0564 1.2775-.0689 1.6882-.0626 4.947.0062 3.2586.0206 3.6671.0825 4.9473.061 1.2765.264 2.1482.5635 2.9107.308.7889.72 1.4573 1.388 2.1228.6679.6655 1.3365 1.0743 2.1285 1.38.7632.295 1.6361.4961 2.9134.552 1.2773.056 1.6884.069 4.9462.0627 3.2578-.0062 3.668-.0207 4.9478-.0814 1.28-.0607 2.147-.2652 2.9098-.5633.7889-.3086 1.4578-.72 2.1228-1.3881.665-.6682 1.0745-1.3378 1.3795-2.1284.2957-.7632.4966-1.636.552-2.9124.056-1.2809.0692-1.6898.063-4.948-.0063-3.2583-.021-3.6668-.0817-4.9465-.0607-1.2797-.264-2.1487-.5633-2.9117-.3084-.7889-.72-1.4568-1.3876-2.1228C21.2982 1.33 20.628.9208 19.8378.6165 19.074.321 18.2017.1197 16.9244.0645 15.6471.0093 15.236-.005 11.977.0014 8.718.0076 8.31.0215 7.0301.0839m.1402 21.6932c-1.17-.0509-1.8053-.2453-2.2287-.408-.5606-.216-.96-.4771-1.3819-.895-.422-.4178-.6811-.8186-.9-1.378-.1644-.4234-.3624-1.058-.4171-2.228-.0595-1.2645-.072-1.6442-.079-4.848-.007-3.2037.0053-3.583.0607-4.848.05-1.169.2456-1.805.408-2.2282.216-.5613.4762-.96.895-1.3816.4188-.4217.8184-.6814 1.3783-.9003.423-.1651 1.0575-.3614 2.227-.4171 1.2655-.06 1.6447-.072 4.848-.079 3.2033-.007 3.5835.005 4.8495.0608 1.169.0508 1.8053.2445 2.228.408.5608.216.96.4754 1.3816.895.4217.4194.6816.8176.9005 1.3787.1653.4217.3617 1.056.4169 2.2263.0602 1.2655.0739 1.645.0796 4.848.0058 3.203-.0055 3.5834-.061 4.848-.051 1.17-.245 1.8055-.408 2.2294-.216.5604-.4763.96-.8954 1.3814-.419.4215-.8181.6811-1.3783.9-.4224.1649-1.0577.3617-2.2262.4174-1.2656.0595-1.6448.072-4.8493.079-3.2045.007-3.5825-.006-4.848-.0608M16.953 5.5864A1.44 1.44 0 1 0 18.39 4.144a1.44 1.44 0 0 0-1.437 1.4424M5.8385 12.012c.0067 3.4032 2.7706 6.1557 6.173 6.1493 3.4026-.0065 6.157-2.7701 6.1506-6.1733-.0065-3.4032-2.771-6.1565-6.174-6.1498-3.403.0067-6.156 2.771-6.1496 6.1738M8 12.0077a4 4 0 1 1 4.008 3.9921A3.9996 3.9996 0 0 1 8 12.0077"
     id="path1" />
  <path
     style="fill:#0000ff;stroke-width:0.0297398"
     d="M 7.8364312,23.954638 C 6.2411141,23.895081 5.4527795,23.788379 4.6096654,23.517892 3.606728,23.19613 2.8596062,22.761263 2.1506674,22.086616 0.97841808,20.971068 0.33214275,19.521584 0.14955321,17.59846 0.06132329,16.669178 0.03980186,15.796478 0.02359116,12.490663 -5.8124312e-4,7.5612315 0.05456477,6.2785686 0.34083744,5.1117074 0.6947057,3.6693231 1.3737292,2.5497281 2.4344664,1.6596669 3.2965062,0.93633219 4.3916934,0.4589076 5.6871813,0.24171211 6.67795,0.0756044 7.5406272,0.04315384 11.480132,0.02380385 c 4.962164,-0.0243730676 6.239358,0.03028468 7.408161,0.31703359 0.962133,0.23604568 1.850482,0.65106513 2.502257,1.16900686 1.48521,1.1802417 2.288224,2.8089837 2.47403,5.0180367 0.0752,0.8940574 0.09603,1.8207706 0.111649,4.966543 0.01626,3.275241 -0.0054,4.809455 -0.08245,5.828996 -0.168353,2.228934 -0.910398,3.826932 -2.330591,5.018942 -0.886071,0.743705 -2.078979,1.248113 -3.421926,1.446923 -0.377872,0.05594 -0.882605,0.09879 -1.635688,0.138859 -0.739159,0.03933 -7.7512872,0.06076 -8.6691448,0.02649 z M 16.684015,21.78696 c 1.019786,-0.061 1.592289,-0.152745 2.185873,-0.350309 0.612804,-0.203961 1.070802,-0.473103 1.51228,-0.888692 0.744036,-0.700404 1.160659,-1.582311 1.326617,-2.808182 0.09749,-0.720116 0.112248,-1.283504 0.126596,-4.832714 C 21.856106,7.7803429 21.806617,6.5142784 21.54586,5.5003474 21.331715,4.6676613 20.997837,4.0697228 20.433626,3.5084604 19.965194,3.0424752 19.480005,2.7511808 18.80433,2.5302738 17.765004,2.1904738 16.816085,2.1423993 11.583643,2.164456 7.3733612,2.182204 6.644414,2.2112139 5.7491575,2.3966509 5.1388776,2.5230598 4.5110448,2.7794503 4.0671301,3.0835468 3.7705451,3.286717 3.2566088,3.8008259 3.0530454,4.0979714 2.6711737,4.6553969 2.4063806,5.4068375 2.2911099,6.260223 c -0.09763,0.7227882 -0.1123277,1.2826885 -0.1264681,4.817844 -0.020614,5.15346 0.028554,6.406962 0.2913917,7.428929 0.4145625,1.611904 1.4667507,2.654649 3.0992864,3.071472 0.4947925,0.126332 1.2096627,0.200261 2.3852005,0.246667 0.6486252,0.02561 8.2306026,-0.0075 8.7434946,-0.03817 z"
     id="path2" />
  <path
     style="fill:#0000ff;stroke-width:0.0297398"
     d="M 11.470375,18.124457 C 9.3364607,17.936445 7.4315226,16.624982 6.4838338,14.69145 4.993694,11.651177 6.2536917,7.9872885 9.3067587,6.482799 10.998132,5.6493245 12.99276,5.6496564 14.693241,6.4836953 c 1.721464,0.8443297 2.949894,2.4334235 3.328178,4.3053217 0.538058,2.662519 -0.752777,5.372361 -3.1664,6.647205 -1.012192,0.534626 -2.256458,0.787636 -3.384644,0.688235 z m 1.294742,-2.18285 c 2.045267,-0.398979 3.461569,-2.3272 3.221707,-4.386187 C 15.701367,9.1050424 13.358328,7.5017412 10.968311,8.1213386 9.4925633,8.5039174 8.3622882,9.7174201 8.0532164,11.251086 c -0.071052,0.352574 -0.070664,1.138393 7.404e-4,1.497828 0.348857,1.756073 1.7205416,3.018032 3.5296862,3.247336 0.206099,0.02612 0.941901,-0.0079 1.181474,-0.05464 z"
     id="path3" />
  <path
     style="fill:#0000ff;stroke-width:0.0297398"
     d="M 18.034552,6.9607576 C 17.54365,6.8253377 17.141376,6.413379 17.010905,5.912467 16.806221,5.1266321 17.367234,4.3080959 18.199752,4.1779002 c 0.50322,-0.078697 1.080966,0.1760022 1.35968,0.5994148 0.550535,0.8363549 0.158524,1.8955126 -0.806465,2.1789563 -0.189587,0.055687 -0.525214,0.057783 -0.718415,0.00449 z"
     id="path4" />
  <metadata
     id="metadata4">
    <rdf:RDF>
      <cc:Work
         rdf:about="">
        <dc:title>Instagram</dc:title>
      </cc:Work>
    </rdf:RDF>
  </metadata>
</svg>
