<?xml version="1.0" encoding="UTF-8" standalone="no"?>
<svg
   role="img"
   viewBox="0 0 24 24"
   version="1.1"
   id="svg1"
   sodipodi:docname="linkedin_blue.svg"
   inkscape:version="1.4 (86a8ad7, 2024-10-11)"
   xmlns:inkscape="http://www.inkscape.org/namespaces/inkscape"
   xmlns:sodipodi="http://sodipodi.sourceforge.net/DTD/sodipodi-0.dtd"
   xmlns="http://www.w3.org/2000/svg"
   xmlns:svg="http://www.w3.org/2000/svg"
   xmlns:rdf="http://www.w3.org/1999/02/22-rdf-syntax-ns#"
   xmlns:cc="http://creativecommons.org/ns#"
   xmlns:dc="http://purl.org/dc/elements/1.1/">
  <defs
     id="defs1" />
  <sodipodi:namedview
     id="namedview1"
     pagecolor="#ffffff"
     bordercolor="#111111"
     borderopacity="1"
     inkscape:showpageshadow="0"
     inkscape:pageopacity="0"
     inkscape:pagecheckerboard="1"
     inkscape:deskcolor="#d1d1d1"
     inkscape:zoom="33.625"
     inkscape:cx="12"
     inkscape:cy="12"
     inkscape:window-width="1920"
     inkscape:window-height="1009"
     inkscape:window-x="1912"
     inkscape:window-y="-8"
     inkscape:window-maximized="1"
     inkscape:current-layer="svg1" />
  <title
     id="title1">LinkedIn icon</title>
  <path
     d="M20.447 20.452h-3.554v-5.569c0-1.328-.027-3.037-1.852-3.037-1.853 0-2.136 1.445-2.136 2.939v5.667H9.351V9h3.414v1.561h.046c.477-.9 1.637-1.85 3.37-1.85 3.601 0 4.267 2.37 4.267 5.455v6.286zM5.337 7.433c-1.144 0-2.063-.926-2.063-2.065 0-1.138.92-2.063 2.063-2.063 1.14 0 2.064.925 2.064 2.063 0 1.139-.925 2.065-2.064 2.065zm1.782 13.019H3.555V9h3.564v11.452zM22.225 0H1.771C.792 0 0 .774 0 1.729v20.542C0 23.227.792 24 1.771 24h20.451C23.2 24 24 23.227 24 22.271V1.729C24 .774 23.2 0 22.222 0h.003z"
     id="path1" />
  <path
     style="fill:#0000ff;stroke-width:0.0297398"
     d="M 1.3828996,23.938926 C 0.76001594,23.805283 0.20661574,23.263247 0.06059301,22.643774 0.02107347,22.476119 0.01574906,21.212364 0.01574906,12 c 0,-9.2123644 0.0053244,-10.4761194 0.04484395,-10.6437736 C 0.20831855,0.7295288 0.76232583,0.19224673 1.3977695,0.05941863 1.7112203,-0.00610264 22.289163,-0.00631976 22.598391,0.05919494 c 0.665102,0.14091178 1.23834,0.71896857 1.354952,1.36634136 0.04532,0.2516233 0.04471,20.9473887 -6.32e-4,21.1677957 -0.09918,0.482117 -0.480521,0.974776 -0.923093,1.192542 -0.436539,0.214797 0.484391,0.198422 -11.044488,0.196376 C 3.1996931,23.98065 1.5460578,23.97395 1.3828996,23.93893 Z m 5.739777,-9.202867 V 8.9962825 H 5.33829 3.5539033 v 5.7397765 5.739777 H 5.33829 7.1226766 Z m 5.8067764,2.490707 c 0.0089,-2.887167 0.01554,-3.279075 0.05991,-3.518441 0.216856,-1.169975 0.735308,-1.709273 1.759299,-1.830039 0.649508,-0.0766 1.255175,0.110749 1.581366,0.489161 0.154641,0.179397 0.248006,0.350004 0.34409,0.628762 0.184098,0.534106 0.181535,0.479508 0.19436,4.141337 l 0.01169,3.33829 h 1.797834 1.797833 l -6.2e-4,-3.144981 c -6.33e-4,-3.208899 -0.0218,-4.198029 -0.103851,-4.852912 -0.300865,-2.401318 -1.383886,-3.5446773 -3.553521,-3.7514939 -0.477155,-0.045484 -1.175757,-0.01888 -1.531599,0.058326 -1.02178,0.2216925 -1.914905,0.821084 -2.397907,1.6092769 l -0.100234,0.163569 -0.0079,-0.7806692 -0.0079,-0.7806692 h -1.72447 -1.7244129 v 5.7397764 5.739777 h 1.7980239 1.798025 z M 5.7484657,7.4043691 C 5.8848532,7.3773297 6.0921237,7.3032839 6.260223,7.2215477 6.7758439,6.9708324 7.1963619,6.4615854 7.3487474,5.9033457 c 0.072042,-0.263914 0.072042,-0.8067179 0,-1.0706319 C 7.1599762,4.141181 6.5651387,3.5463435 5.8736059,3.3575723 5.609564,3.2854956 5.0666995,3.2855164 4.8034822,3.3576134 3.7374388,3.6496101 3.0825261,4.7066876 3.3038415,5.7781439 3.5389588,6.9164193 4.6113541,7.6298034 5.7484657,7.4043691 Z"
     id="path2" />
  <metadata
     id="metadata2">
    <rdf:RDF>
      <cc:Work
         rdf:about="">
        <dc:title>LinkedIn icon</dc:title>
      </cc:Work>
    </rdf:RDF>
  </metadata>
</svg>
