<?xml version="1.0" encoding="UTF-8" standalone="no"?>
<svg
   role="img"
   viewBox="0 0 24 24"
   version="1.1"
   id="svg1"
   sodipodi:docname="linkedin.svg"
   inkscape:version="1.4 (86a8ad7, 2024-10-11)"
   xmlns:inkscape="http://www.inkscape.org/namespaces/inkscape"
   xmlns:sodipodi="http://sodipodi.sourceforge.net/DTD/sodipodi-0.dtd"
   xmlns="http://www.w3.org/2000/svg"
   xmlns:svg="http://www.w3.org/2000/svg"
   xmlns:rdf="http://www.w3.org/1999/02/22-rdf-syntax-ns#"
   xmlns:cc="http://creativecommons.org/ns#"
   xmlns:dc="http://purl.org/dc/elements/1.1/">
  <defs
     id="defs1" />
  <sodipodi:namedview
     id="namedview1"
     pagecolor="#ffffff"
     bordercolor="#111111"
     borderopacity="1"
     inkscape:showpageshadow="0"
     inkscape:pageopacity="0"
     inkscape:pagecheckerboard="1"
     inkscape:deskcolor="#d1d1d1"
     inkscape:zoom="33.625"
     inkscape:cx="12"
     inkscape:cy="12"
     inkscape:window-width="1920"
     inkscape:window-height="1009"
     inkscape:window-x="1912"
     inkscape:window-y="-8"
     inkscape:window-maximized="1"
     inkscape:current-layer="svg1" />
  <title
     id="title1">LinkedIn icon</title>
  <path
     d="M20.447 20.452h-3.554v-5.569c0-1.328-.027-3.037-1.852-3.037-1.853 0-2.136 1.445-2.136 2.939v5.667H9.351V9h3.414v1.561h.046c.477-.9 1.637-1.85 3.37-1.85 3.601 0 4.267 2.37 4.267 5.455v6.286zM5.337 7.433c-1.144 0-2.063-.926-2.063-2.065 0-1.138.92-2.063 2.063-2.063 1.14 0 2.064.925 2.064 2.063 0 1.139-.925 2.065-2.064 2.065zm1.782 13.019H3.555V9h3.564v11.452zM22.225 0H1.771C.792 0 0 .774 0 1.729v20.542C0 23.227.792 24 1.771 24h20.451C23.2 24 24 23.227 24 22.271V1.729C24 .774 23.2 0 22.222 0h.003z"
     id="path1" />
  <path
     style="fill:#0000ff;stroke-width:0.0297398"
     d="M 1.3828996,23.938926 C 0.76001594,23.805283 0.20661574,23.263247 0.06059301,22.643774 0.02107347,22.476119 0.01574906,21.212364 0.01574906,12 c 0,-9.2123644 0.0053244,-10.4761194 0.04484395,-10.6437736 C 0.20831855,0.7295288 0.76232583,0.19224673 1.3977695,0.05941863 1.7112203,-0.00610264 22.289163,-0.00631976 22.598391,0.05919494 c 0.665102,0.14091178 1.23834,0.71896857 1.354952,1.36634136 0.04532,0.2516233 0.04471,20.9473887 -6.32e-4,21.1677957 -0.09918,0.482117 -0.480521,0.974776 -0.923093,1.192542 -0.436539,0.214797 0.484391,0.198422 -11.044488,0.196376 C 3.1996931,23.98065 1.5460578,23.97395 1.3828996,23.93893 Z m 5.739777,-9.202867 V 8.9962825 H 5.33829 3.5539033 v 5.7397765 5.739777 H 5.33829 7.1226766 Z m 5.8067764,2.490707 c 0.0089,-2.887167 0.01554,-3.279075 0.05991,-3.518441 0.216856,-1.169975 0.735308,-1.709273 1.759299,-1.830039 0.649508,-0.0766 1.255175,0.110749 1.581366,0.489161 0.154641,0.179397 0.248006,0.350004 0.34409,0.628762 0.184098,0.534106 0.181535,0.479508 0.19436,4.141337 l 0.01169,3.33829 h 1.797834 1.797833 l -6.2e-4,-3.144981 c -6.33e-4,-3.208899 -0.0218,-4.198029 -0.103851,-4.852912 -0.300865,-2.401318 -1.383886,-3.5446773 -3.553521,-3.7514939 -0.477155,-0.045484 -1.175757,-0.01888 -1.531599,0.058326 -1.02178,0.2216925 -1.914905,0.821084 -2.397907,1.6092769 l -0.100234,0.163569 -0.0079,-0.7806692 -0.0079,-0.7806692 h -1.72447 -1.7244129 v 5.7397764 5.739777 h 1.7980239 1.798025 z M 5.7484657,7.4043691 C 5.8848532,7.3773297 6.0921237,7.3032839 6.260223,7.2215477 6.7758439,6.9708324 7.1963619,6.4615854 7.3487474,5.9033457 c 0.072042,-0.263914 0.072042,-0.8067179 0,-1.0706319 C 7.1599762,4.141181 6.5651387,3.5463435 5.8736059,3.3575723 5.609564,3.2854956 5.0666995,3.2855164 4.8034822,3.3576134 3.7374388,3.6496101 3.0825261,4.7066876 3.3038415,5.7781439 3.5389588,6.9164193 4.6113541,7.6298034 5.7484657,7.4043691 Z"
     id="path2" />
  <metadata
     id="metadata2">
    <rdf:RDF>
      <cc:Work
         rdf:about="">
        <dc:title>LinkedIn icon</dc:title>
      </cc:Work>
    </rdf:RDF>
  </metadata>
  <path
     style="fill:#4392f7;stroke-width:0.0297398"
     d="M 1.4811276,23.927274 C 0.92519408,23.875119 0.30548735,23.352488 0.11662952,22.776523 0.06068889,22.605919 0.05947955,22.37788 0.05947955,12 c 0,-10.4473216 8.511e-4,-10.6048282 0.05825048,-10.7800213 C 0.25215441,0.80969178 0.62527703,0.40090251 1.0491437,0.19953165 1.2415385,0.10812861 1.3075922,0.09340038 1.6439392,0.0669081 2.161305,0.02615793 21.838265,0.02604365 22.354795,0.06678782 c 0.319642,0.02521358 0.405737,0.04328024 0.565055,0.11857404 0.422013,0.19944323 0.766638,0.55230482 0.937221,0.95961954 l 0.08096,0.1933086 0.02469,5.2246867 c 0.01358,2.8735776 0.01356,7.6713473 -3.7e-5,10.6617103 -0.02385,5.245909 -0.02671,5.441727 -0.08127,5.570852 -0.225456,0.533624 -0.713044,0.996178 -1.166616,1.106722 -0.1068,0.02603 -2.746731,0.03598 -10.580967,0.03989 -5.7412639,0.0029 -10.5349796,-0.0038 -10.6527014,-0.01487 z m 5.641549,-9.191215 V 8.9962825 H 5.33829 3.5539033 v 5.7397765 5.739777 H 5.33829 7.1226766 Z m 5.8022114,5.657993 c 0.0016,-0.04498 0.01363,-1.547212 0.02667,-3.33829 0.02575,-3.535949 0.01667,-3.355044 0.19515,-3.890683 0.210403,-0.631458 0.637371,-1.045244 1.247347,-1.208835 0.272274,-0.07302 0.817328,-0.09086 1.077766,-0.03527 0.313859,0.06699 0.588317,0.208765 0.785115,0.405555 0.248705,0.248693 0.460721,0.712644 0.531837,1.163808 0.02367,0.150159 0.04234,1.283394 0.05897,3.580292 0.01339,1.848327 0.02552,3.370632 0.02696,3.3829 0.0014,0.01227 0.812286,0.0223 1.801877,0.0223 h 1.799256 l -5.34e-4,-3.27881 C 20.475008,15.39368 20.461462,13.644021 20.4452,13.308894 20.396075,12.29652 20.25362,11.525673 19.997213,10.884758 19.518342,9.6877707 18.665559,9.0269407 17.263941,8.7667167 16.907622,8.700563 15.700803,8.6915955 15.377724,8.7527013 c -0.496212,0.093851 -1.070543,0.3290084 -1.513213,0.6195786 -0.269272,0.1767512 -0.773676,0.6785411 -0.93716,0.9323051 l -0.124377,0.19306 V 9.8849436 c 0,-0.3369858 -0.0085,-0.6747922 -0.01891,-0.7506813 L 12.765149,8.9962825 H 11.044285 9.3234201 v 5.7397765 5.739777 h 1.7992569 1.799256 z M 6.0291509,7.3327408 C 6.6157514,7.1151575 7.0576996,6.6888315 7.2881814,6.1182165 7.4319768,5.762215 7.4571251,5.1513728 7.3435542,4.7732342 7.1495527,4.1272987 6.5754807,3.5572512 5.9166608,3.3563441 5.6669484,3.2801942 5.0097484,3.2802861 4.7583643,3.3565062 4.0489749,3.5715938 3.4958123,4.1444657 3.3150477,4.8512488 3.0995601,5.6937972 3.4553109,6.628284 4.1723905,7.1033193 c 0.4023982,0.2665719 0.7089401,0.350667 1.225379,0.336165 0.3312559,-0.0093 0.4000271,-0.020929 0.6313814,-0.1067435 z"
     id="path3" />
</svg>
